<svg xmlns="http://www.w3.org/2000/svg" width="64" height="64" viewBox="0 0 64 64" shape-rendering="crispEdges">
  <!-- UNDO NOTHING -->
  <rect x="8" y="8" width="48" height="48" fill="#1a1a1a"/>
  <g transform="translate(20, 22) scale(2.4)">
    <g fill="#1d2b53" transform="translate(0, 1)">
      <rect x="2" y="5" width="2" height="2"/>
      <rect x="4" y="4" width="2" height="4"/>
      <rect x="6" y="3" width="2" height="6"/>
      <rect x="8" y="5" width="3" height="2"/>
      <rect x="11" y="6" width="2" height="2"/>
      <rect x="12" y="7" width="2" height="4"/>
    </g>
    <g fill="#ffffff">
      <rect x="2" y="5" width="2" height="2"/>
      <rect x="4" y="4" width="2" height="4"/>
      <rect x="6" y="3" width="2" height="6"/>
      <rect x="8" y="5" width="3" height="2"/>
      <rect x="11" y="6" width="2" height="2"/>
      <rect x="12" y="8" width="2" height="3"/>
    </g>
  </g>
  <line x1="14" y1="50" x2="50" y2="14" stroke="#000000" stroke-width="6" stroke-linecap="round"/>
  <line x1="14" y1="50" x2="50" y2="14" stroke="#ff004d" stroke-width="4" stroke-linecap="round"/>
</svg>
