<svg xmlns="http://www.w3.org/2000/svg" width="64" height="64" viewBox="0 0 64 64" shape-rendering="crispEdges">
  <!-- EASY DOES IT — every easy puzzle cleared -->
  <rect x="6" y="8" width="52" height="12" fill="#1a1a1a"/>
  <rect x="8" y="10" width="48" height="8" fill="#00e436"/>
  <rect x="8" y="10" width="44" height="2" fill="#a1ff00"/>
  <rect x="10" y="26" width="12" height="12" fill="#1a1a1a"/>
  <rect x="11" y="27" width="10" height="10" fill="#00e436"/>
  <rect x="11" y="27" width="8" height="2" fill="#a1ff00"/>
  <rect x="26" y="26" width="12" height="12" fill="#1a1a1a"/>
  <rect x="27" y="27" width="10" height="10" fill="#00e436"/>
  <rect x="27" y="27" width="8" height="2" fill="#a1ff00"/>
  <rect x="42" y="26" width="12" height="12" fill="#1a1a1a"/>
  <rect x="43" y="27" width="10" height="10" fill="#00e436"/>
  <rect x="43" y="27" width="8" height="2" fill="#a1ff00"/>
  <rect x="10" y="44" width="12" height="12" fill="#1a1a1a"/>
  <rect x="11" y="45" width="10" height="10" fill="#00e436"/>
  <rect x="26" y="44" width="12" height="12" fill="#1a1a1a"/>
  <rect x="27" y="45" width="10" height="10" fill="#00e436"/>
  <rect x="42" y="44" width="12" height="12" fill="#1a1a1a"/>
  <rect x="43" y="45" width="10" height="10" fill="#00e436"/>
</svg>
